<svg width="25" height="25" viewBox="0 0 25 25" fill="none" xmlns="http://www.w3.org/2000/svg">
<g clip-path="url(#clip0_2_9)">
<path d="M0 1.17188C0 0.522461 0.46441 0 1.04167 0H3.01649C3.97135 0 4.81771 0.625 5.21267 1.5625H23.0512C24.1927 1.5625 25.026 2.7832 24.7266 4.02344L22.947 11.46C22.5781 12.9932 21.3411 14.0625 19.9306 14.0625H7.40885L7.64323 15.4541C7.73872 16.0059 8.1684 16.4062 8.66753 16.4062H21.1806C21.7578 16.4062 22.2222 16.9287 22.2222 17.5781C22.2222 18.2275 21.7578 18.75 21.1806 18.75H8.66753C7.1658 18.75 5.87674 17.5488 5.59896 15.8936L3.35938 2.66113C3.32899 2.47559 3.18576 2.34375 3.01649 2.34375H1.04167C0.46441 2.34375 0 1.82129 0 1.17188ZM5.55556 22.6562C5.55556 22.3485 5.60944 22.0437 5.71414 21.7593C5.81884 21.475 5.97229 21.2166 6.16575 20.999C6.3592 20.7813 6.58887 20.6087 6.84163 20.4909C7.09439 20.3731 7.3653 20.3125 7.63889 20.3125C7.91248 20.3125 8.18338 20.3731 8.43615 20.4909C8.68891 20.6087 8.91857 20.7813 9.11203 20.999C9.30548 21.2166 9.45894 21.475 9.56364 21.7593C9.66833 22.0437 9.72222 22.3485 9.72222 22.6562C9.72222 22.964 9.66833 23.2688 9.56364 23.5532C9.45894 23.8375 9.30548 24.0959 9.11203 24.3135C8.91857 24.5312 8.68891 24.7038 8.43615 24.8216C8.18338 24.9394 7.91248 25 7.63889 25C7.3653 25 7.09439 24.9394 6.84163 24.8216C6.58887 24.7038 6.3592 24.5312 6.16575 24.3135C5.97229 24.0959 5.81884 23.8375 5.71414 23.5532C5.60944 23.2688 5.55556 22.964 5.55556 22.6562ZM20.1389 20.3125C20.6914 20.3125 21.2213 20.5594 21.612 20.999C22.0027 21.4385 22.2222 22.0346 22.2222 22.6562C22.2222 23.2779 22.0027 23.874 21.612 24.3135C21.2213 24.7531 20.6914 25 20.1389 25C19.5864 25 19.0564 24.7531 18.6657 24.3135C18.275 23.874 18.0556 23.2779 18.0556 22.6562C18.0556 22.0346 18.275 21.4385 18.6657 20.999C19.0564 20.5594 19.5864 20.3125 20.1389 20.3125Z" fill="white"/>
</g>
<defs>
<clipPath id="clip0_2_9">
<rect width="25" height="25" fill="white"/>
</clipPath>
</defs>
</svg>
